<svg width="342" height="61" viewBox="0 0 342 61" fill="none" xmlns="http://www.w3.org/2000/svg">
<path d="M0 44.7347V60.9994L33.5537 22.3542H19.4331L0 44.7347Z" fill="#000"/>
<path d="M0 38.6453L33.5537 0H0V38.6453Z" fill="#000"/>
<path d="M125.003 4.43253C113.312 4.43253 104.389 12.9666 104.389 24.7681C104.389 36.5696 113.201 45.1037 125.003 45.1037C136.804 45.1037 145.616 36.5125 145.616 24.7681C145.616 13.0238 136.694 4.43253 125.003 4.43253ZM125.003 38.3442C117.135 38.3442 112.036 32.3578 112.036 24.7681C112.036 17.1785 117.189 11.192 125.003 11.192C132.817 11.192 138.027 17.2889 138.027 24.7681C138.027 32.2474 132.817 38.3442 125.003 38.3442Z" fill="#000"/>
<path d="M196.037 17.5062C196.037 9.74902 191.219 5.75806 182.575 5.75806H160.575V45.104H167.997V12.3576H181.962C186.231 12.3576 188.39 13.9075 188.39 17.5101C188.39 20.7813 186.227 22.4416 181.962 22.4416H176.059L170.465 28.9231H180.743L189.666 45.1078H197.533L188.276 28.1501C193.322 26.6001 196.033 22.8263 196.033 17.5101L196.037 17.5062Z" fill="#000"/>
<path d="M287.17 5.76169H279.691V45.1076H287.17V5.76169Z" fill="#000"/>
<path d="M323.66 38.2909C316.291 38.2909 311.523 32.1407 311.523 24.7681C311.523 17.3955 316.287 11.2453 323.66 11.2453C329.977 11.2453 333.192 15.1258 334.353 17.1746H342C340.949 12.5743 335.793 4.42868 323.656 4.42868C311.519 4.42868 303.819 13.2408 303.819 24.7643C303.819 36.2878 312.132 45.0999 323.656 45.0999C336.291 45.0999 341.113 36.4553 342 32.3006H334.464C333.466 34.3494 330.473 38.2871 323.656 38.2871L323.66 38.2909Z" fill="#000"/>
<path d="M67.9528 28.9497V28.9611H85.1009V22.4758H73.5431L67.9528 28.9497Z" fill="#000"/>
<path d="M58.0173 45.1038H65.4433V21.497V12.247H91.3197V5.76169H58.0173V45.1038Z" fill="#000"/>
<path d="M251.796 5.5484L237.043 22.609L222.26 5.51413H216.251L216.232 5.52935H214.506V45.1038H221.361V14.9508L232.511 27.849L237.043 33.089L241.575 27.8528L249.9 18.2258L252.729 14.9508L260.84 5.5484H251.796Z" fill="#000"/>
<path d="M261.107 18.2031H253.624V45.1039H261.107V18.2031Z" fill="#000"/>
</svg>
